<?xml version="1.0" encoding="UTF-8" standalone="no"?>
<!DOCTYPE svg PUBLIC "-//W3C//DTD SVG 1.1//EN" "http://www.w3.org/Graphics/SVG/1.1/DTD/svg11.dtd">
<svg width="100%" height="100%" viewBox="0 0 2092 705" version="1.1" xmlns="http://www.w3.org/2000/svg" xmlns:xlink="http://www.w3.org/1999/xlink" xml:space="preserve" xmlns:serif="http://www.serif.com/" style="fill-rule:evenodd;clip-rule:evenodd;stroke-linejoin:round;stroke-miterlimit:2;">
    <g transform="matrix(2.08333,0,0,2.08333,-51.4061,-703.058)">
        <g transform="matrix(1.25404,0,0,1.25404,-198.861,-110.972)">
            <path d="M592.762,546.182L603.99,611.829L630.493,627.013L178.652,611.829L573.66,357.995L564.275,379.625L564.932,383.463L787.942,434.259L815.461,450.814L828.176,476.127L876.963,495.456L910.462,493.433L922.75,501.965L909.816,509.053L873.003,509.07L957.115,535.379L952.917,543.044L918.757,544.014L907.393,544.322C907.393,544.322 928.517,559.407 928.851,561.308C929.185,563.208 971.789,568.035 972.144,567.755C972.5,567.475 978.548,588.109 978.548,588.109L968.561,598.171C968.561,598.171 937.85,602.293 937.453,603.246C937.056,604.199 892.687,596.664 891.547,597.864C890.407,599.063 796.825,534.806 796.047,533.697C795.269,532.588 734.859,609.992 734.859,609.992L683.849,614.566L677.96,602.305L718.813,568.309L722.948,554.936L745.575,522.553L745.647,510.068L736.18,491.77C736.18,491.77 629.885,532.278 592.762,546.182Z"/>
        </g>
    </g>
</svg>
