<?xml version="1.0" encoding="UTF-8" standalone="no"?>
<!DOCTYPE svg PUBLIC "-//W3C//DTD SVG 1.1//EN" "http://www.w3.org/Graphics/SVG/1.1/DTD/svg11.dtd">
<svg width="100%" height="100%" viewBox="0 0 406 139" version="1.1" xmlns="http://www.w3.org/2000/svg" xmlns:xlink="http://www.w3.org/1999/xlink" xml:space="preserve" xmlns:serif="http://www.serif.com/" style="fill-rule:evenodd;clip-rule:evenodd;stroke-linejoin:round;stroke-miterlimit:2;">
    <g transform="matrix(1,0,0,1,-7.11312,-627.572)">
        <g transform="matrix(0.504727,0,0,0.504727,-82.5573,447.382)">
            <path d="M594.635,545.479C593.993,545.72 593.368,545.955 592.762,546.182L603.99,611.829L630.493,627.013L178.652,611.829L573.66,357.995L564.275,379.625L564.932,383.463L568.43,384.26C566.102,393.826 563.521,406.88 561.301,424.005C556.4,461.805 586.003,527.371 594.635,545.479Z" style="stroke:black;stroke-width:1.98px;"/>
        </g>
        <path d="M217.571,722.7C213.215,713.56 198.273,680.467 200.747,661.389C201.867,652.746 203.17,646.157 204.345,641.328L315.139,666.564L329.028,674.92L335.446,687.696L360.07,697.452L376.978,696.431L383.18,700.738L376.652,704.315L358.071,704.323L400.525,717.602L398.406,721.471L381.165,721.96L375.429,722.116C375.429,722.116 386.091,729.73 386.259,730.689C386.428,731.649 407.931,734.085 408.111,733.943C408.29,733.802 411.343,744.216 411.343,744.216L406.302,749.295C406.302,749.295 390.801,751.376 390.601,751.857C390.4,752.338 368.006,748.535 367.431,749.14C366.856,749.746 319.622,717.313 319.23,716.753C318.837,716.194 288.346,755.262 288.346,755.262L262.6,757.57L259.628,751.382L280.248,734.223L282.334,727.473L293.755,711.129L293.791,704.827L289.013,695.592C289.013,695.592 237.101,715.375 217.571,722.7Z" style="fill:rgb(130,255,107);stroke:rgb(130,255,107);stroke-width:2px;stroke-linecap:round;stroke-miterlimit:1.5;"/>
        <path d="M39.817,757.292C28.264,754.406 30.814,744.11 32.671,740.394" style="fill:rgb(130,255,107);stroke:rgb(0,255,171);stroke-width:2px;stroke-linecap:round;stroke-miterlimit:1.5;"/>
        <path d="M56.404,726.113C56.448,726.469 56.494,726.826 56.543,727.185" style="fill:none;stroke:rgb(0,185,93);stroke-width:2px;stroke-linecap:round;stroke-miterlimit:1.5;"/>
        <path d="M56.308,725.299C56.339,725.57 56.371,725.841 56.404,726.113" style="fill:none;stroke:rgb(0,185,93);stroke-width:2px;stroke-linecap:round;stroke-miterlimit:1.5;"/>
        <path d="M56.543,727.185C58.018,738.077 61.677,749.768 68.663,758.57" style="fill:rgb(130,255,107);stroke:rgb(0,255,171);stroke-width:2px;stroke-linecap:round;stroke-miterlimit:1.5;"/>
        <g transform="matrix(1,0,0,1,-1.83818,1.83818)">
            <path d="M106.957,758.626C96.57,746.411 85.846,725.741 83.428,707.406" style="fill:rgb(130,255,107);stroke:rgb(0,255,171);stroke-width:2px;stroke-linecap:round;stroke-miterlimit:1.5;"/>
        </g>
        <g transform="matrix(1,0,0,1,-0.407018,2.87157)">
            <path d="M154.076,759.704C141.261,744.21 124.996,716.599 125.502,678.85" style="fill:rgb(130,255,107);"/>
            <path d="M125.513,677.836C125.767,678.302 126.26,678.607 126.513,679.072C126.617,679.264 126.687,696.751 134.492,718.069C137.934,727.469 144.088,743.487 154.578,758.68C154.668,758.81 154.836,758.911 154.848,759.069C154.901,759.78 154.659,759.765 154.712,760.476C154.232,760.285 153.664,760.408 153.184,760.217C153.052,760.164 144.913,751.822 138.896,742.13C131.786,730.678 129.046,722.101 126.984,713.398C124.234,701.794 124.172,690.461 124.161,688.453C124.145,685.488 124.226,682.676 124.468,679.281C124.474,679.204 124.44,679.113 124.485,679.05C124.952,678.405 125.045,678.484 125.513,677.836Z" style="fill:rgb(0,255,171);"/>
        </g>
        <g transform="matrix(1,0,0,1,-1.83818,1.83818)">
            <path d="M189.759,761.496C186.423,754.551 184.643,743.294 178.586,727.095C162.972,685.339 167.87,664.666 171.46,650.702" style="fill:rgb(130,255,107);"/>
            <path d="M170.492,650.453C170.946,650.942 171.975,650.463 172.429,650.952C172.46,650.985 171.419,656.49 171.019,662.573C170.935,663.851 170.066,667.121 169.953,671.608C169.632,684.275 172.072,697.494 178.321,716.702C181.458,726.344 182.691,728.144 186.04,739.999C186.424,741.359 187.8,746.786 187.821,746.888C188.786,751.518 189.297,756.624 190.662,761.065C190.695,761.173 190.627,761.165 190.192,762.397C189.772,762.182 189.277,762.14 188.856,761.925C188.736,761.864 187.733,760.078 187.641,759.914C184.878,754.993 182.595,748.664 182.54,748.52C182.168,747.549 179.45,738.314 175.625,728.196C173.516,722.615 166.92,705.568 165.764,685.265C165.281,676.79 165.936,671.395 166.137,668.365C166.332,665.428 166.638,663.147 166.748,662.323C166.787,662.037 167.368,659.875 167.994,657.83C168.96,654.674 170.095,651.561 170.492,650.453Z" style="fill:rgb(0,255,171);"/>
        </g>
    </g>
</svg>
